<mxfile host="app.diagrams.net" modified="2024-07-12T02:30:43.590Z" agent="Mozilla/5.0 (Windows NT 10.0; Win64; x64) AppleWebKit/537.36 (KHTML, like Gecko) Chrome/126.0.0.0 Safari/537.36 Edg/126.0.0.0" etag="2tZvI3INHW1_-__rQ5IO" version="24.6.5" type="github">
  <diagram name="第 1 页" id="c_JAvTn-NgCgiwLRKzAP">
    <mxGraphModel dx="1158" dy="654" grid="1" gridSize="10" guides="1" tooltips="1" connect="1" arrows="1" fold="1" page="1" pageScale="1" pageWidth="827" pageHeight="1169" math="0" shadow="0">
      <root>
        <mxCell id="0" />
        <mxCell id="1" parent="0" />
        <mxCell id="VA-WtucBuzOQpe4PcBSQ-1" value="终端展示层" style="rounded=0;whiteSpace=wrap;html=1;dashed=1;align=left;" vertex="1" parent="1">
          <mxGeometry x="120" y="240" width="430" height="60" as="geometry" />
        </mxCell>
        <mxCell id="VA-WtucBuzOQpe4PcBSQ-2" value="新建PC端" style="rounded=1;whiteSpace=wrap;html=1;" vertex="1" parent="1">
          <mxGeometry x="210" y="255" width="80" height="30" as="geometry" />
        </mxCell>
        <mxCell id="VA-WtucBuzOQpe4PcBSQ-4" value="新建小程序端" style="rounded=1;whiteSpace=wrap;html=1;" vertex="1" parent="1">
          <mxGeometry x="320" y="255" width="80" height="30" as="geometry" />
        </mxCell>
        <mxCell id="VA-WtucBuzOQpe4PcBSQ-5" value="应用层" style="rounded=0;whiteSpace=wrap;html=1;dashed=1;align=left;" vertex="1" parent="1">
          <mxGeometry x="120" y="320" width="430" height="60" as="geometry" />
        </mxCell>
        <mxCell id="VA-WtucBuzOQpe4PcBSQ-6" value="新建小程序接口系统" style="rounded=1;whiteSpace=wrap;html=1;" vertex="1" parent="1">
          <mxGeometry x="210" y="335" width="80" height="30" as="geometry" />
        </mxCell>
        <mxCell id="VA-WtucBuzOQpe4PcBSQ-8" value="平台层" style="rounded=0;whiteSpace=wrap;html=1;dashed=1;align=left;" vertex="1" parent="1">
          <mxGeometry x="120" y="400" width="430" height="60" as="geometry" />
        </mxCell>
        <mxCell id="VA-WtucBuzOQpe4PcBSQ-9" value="新建服务能力" style="rounded=1;whiteSpace=wrap;html=1;" vertex="1" parent="1">
          <mxGeometry x="210" y="415" width="80" height="30" as="geometry" />
        </mxCell>
        <mxCell id="VA-WtucBuzOQpe4PcBSQ-10" value="新建服务接口" style="rounded=1;whiteSpace=wrap;html=1;" vertex="1" parent="1">
          <mxGeometry x="320" y="415" width="80" height="30" as="geometry" />
        </mxCell>
        <mxCell id="VA-WtucBuzOQpe4PcBSQ-11" value="数据层" style="rounded=0;whiteSpace=wrap;html=1;dashed=1;align=left;" vertex="1" parent="1">
          <mxGeometry x="120" y="480" width="430" height="60" as="geometry" />
        </mxCell>
        <mxCell id="VA-WtucBuzOQpe4PcBSQ-12" value="基础层" style="rounded=0;whiteSpace=wrap;html=1;dashed=1;align=left;" vertex="1" parent="1">
          <mxGeometry x="120" y="560" width="430" height="60" as="geometry" />
        </mxCell>
        <mxCell id="VA-WtucBuzOQpe4PcBSQ-13" value="网络层" style="rounded=0;whiteSpace=wrap;html=1;dashed=1;align=left;" vertex="1" parent="1">
          <mxGeometry x="120" y="640" width="430" height="60" as="geometry" />
        </mxCell>
        <mxCell id="VA-WtucBuzOQpe4PcBSQ-15" value="互联网" style="rounded=1;whiteSpace=wrap;html=1;" vertex="1" parent="1">
          <mxGeometry x="210" y="655" width="80" height="30" as="geometry" />
        </mxCell>
        <mxCell id="VA-WtucBuzOQpe4PcBSQ-16" value="新建云服务" style="rounded=1;whiteSpace=wrap;html=1;" vertex="1" parent="1">
          <mxGeometry x="210" y="575" width="80" height="30" as="geometry" />
        </mxCell>
        <mxCell id="VA-WtucBuzOQpe4PcBSQ-17" value="新建数据库1" style="rounded=1;whiteSpace=wrap;html=1;" vertex="1" parent="1">
          <mxGeometry x="210" y="495" width="80" height="30" as="geometry" />
        </mxCell>
        <mxCell id="VA-WtucBuzOQpe4PcBSQ-19" value="&lt;div style=&quot;&quot;&gt;标&lt;/div&gt;&lt;div style=&quot;&quot;&gt;准&lt;/div&gt;&lt;div style=&quot;&quot;&gt;体&lt;/div&gt;&lt;div style=&quot;&quot;&gt;系&lt;/div&gt;" style="rounded=0;whiteSpace=wrap;html=1;dashed=1;align=center;" vertex="1" parent="1">
          <mxGeometry x="690" y="240" width="40" height="460" as="geometry" />
        </mxCell>
        <mxCell id="VA-WtucBuzOQpe4PcBSQ-20" value="&lt;div style=&quot;&quot;&gt;&lt;span style=&quot;background-color: initial;&quot;&gt;管&lt;/span&gt;&lt;/div&gt;&lt;div style=&quot;&quot;&gt;&lt;span style=&quot;background-color: initial;&quot;&gt;理&lt;/span&gt;&lt;/div&gt;&lt;div style=&quot;&quot;&gt;&lt;span style=&quot;background-color: initial;&quot;&gt;体&lt;/span&gt;&lt;/div&gt;&lt;div style=&quot;&quot;&gt;&lt;span style=&quot;background-color: initial;&quot;&gt;系&lt;/span&gt;&lt;/div&gt;" style="rounded=0;whiteSpace=wrap;html=1;dashed=1;align=center;" vertex="1" parent="1">
          <mxGeometry x="570" y="240" width="40" height="460" as="geometry" />
        </mxCell>
        <mxCell id="VA-WtucBuzOQpe4PcBSQ-21" value="&lt;div style=&quot;&quot;&gt;服&lt;/div&gt;&lt;div style=&quot;&quot;&gt;务&lt;/div&gt;&lt;div style=&quot;&quot;&gt;体&lt;/div&gt;&lt;div style=&quot;&quot;&gt;系&lt;/div&gt;" style="rounded=0;whiteSpace=wrap;html=1;dashed=1;align=center;" vertex="1" parent="1">
          <mxGeometry x="630" y="240" width="40" height="460" as="geometry" />
        </mxCell>
        <mxCell id="VA-WtucBuzOQpe4PcBSQ-23" value="新建标准" style="rounded=1;whiteSpace=wrap;html=1;" vertex="1" parent="1">
          <mxGeometry x="700" y="530" width="20" height="90" as="geometry" />
        </mxCell>
      </root>
    </mxGraphModel>
  </diagram>
</mxfile>
